# xmcd
#
# Track frame offsets: 
#        150
#        26459
#        44296
#        57384
#        81279
#        110194
#        130429
#        157109
#        194754
#        219459
#        260421
#        277684
#        296291
#
# Disc length: 4201 seconds
#
# Revision: 4
# Processed by: cddbd v1.5.2PL0 Copyright (c) Steve Scherf et al.
# Submitted via: ExactAudioCopy v0.99pb4
#
DISCID=c510670d
DTITLE=Roxy Music - Live in America
DYEAR=1979
DGENRE=Rock
TTITLE0=Manifesto
TTITLE1=Angel Eyes
TTITLE2=Trash
TTITLE3=Out Of The Blue
TTITLE4=A Song For Europe
TTITLE5=Still Falls The Rain
TTITLE6=Ain't That So
TTITLE7=Stronger Through The Years
TTITLE8=Ladytron
TTITLE9=In Every Dream Home A Heartache
TTITLE10=Love Is The Drug
TTITLE11=Do The Strand
TTITLE12=Re-Make/Re-Model
EXTD=
EXTT0=
EXTT1=
EXTT2=
EXTT3=
EXTT4=
EXTT5=
EXTT6=
EXTT7=
EXTT8=
EXTT9=
EXTT10=
EXTT11=
EXTT12=
PLAYORDER=
